<svg width="34" height="32" viewBox="0 0 34 32" fill="none" xmlns="http://www.w3.org/2000/svg">
<path d="M26.3333 24.3333C24.4923 24.3333 22.9999 25.8257 22.9999 27.6667C22.9999 29.5076 24.4923 31 26.3333 31C28.1742 31 29.6666 29.5076 29.6666 27.6667C29.6666 25.8257 28.1742 24.3333 26.3333 24.3333ZM26.3333 24.3333H10.2787C9.44933 24.3333 8.74613 23.7235 8.62883 22.9024L8.11897 19.3333M1.33325 1H5.49992L5.97611 4.33333M5.97611 4.33333H6.33325H32.9999L27.9999 19.3333H8.83325H8.11897M5.97611 4.33333L8.11897 19.3333M16.3333 27.6667C16.3333 29.5076 14.8409 31 12.9999 31C11.159 31 9.66659 29.5076 9.66659 27.6667C9.66659 25.8257 11.159 24.3333 12.9999 24.3333C14.8409 24.3333 16.3333 25.8257 16.3333 27.6667Z" stroke="#F7F7F7" stroke-width="1.5" stroke-linecap="round" stroke-linejoin="round"/>
</svg>
