<svg width="40" height="40" viewBox="0 0 40 40" fill="none" xmlns="http://www.w3.org/2000/svg">
<path d="M20.1175 5C13.7712 5 7.5 9.22875 7.5 16.0763C7.5 20.43 9.9475 22.905 11.4325 22.905C12.045 22.905 12.4 21.1975 12.4 20.715C12.4 20.14 10.9325 18.915 10.9325 16.5212C10.9325 11.5487 14.7175 8.025 19.6163 8.025C23.8288 8.025 26.9462 10.4175 26.9462 14.815C26.9462 18.0988 25.6275 24.2575 21.3587 24.2575C19.82 24.2575 18.5038 23.145 18.5038 21.55C18.5038 19.2125 20 16.9487 20 14.5362C20 10.4412 14.3288 11.1838 14.3288 16.1325C14.3288 17.1713 14.4587 18.3212 14.9225 19.2675C14.0687 22.9425 12.5 28.7962 12.5 32.5825C12.5 33.7512 12.6675 34.9013 12.7787 36.0713C12.9887 36.3062 12.8837 36.2825 13.205 36.165C16.3225 31.8975 16.0337 30.68 17.4438 25.095C18.2063 26.5425 20.1725 27.3213 21.7313 27.3213C28.3 27.3213 31.25 20.9213 31.25 15.1488C31.25 9.0075 25.9438 5 20.1175 5Z" fill="#F7F7F7"/>
</svg>
