<svg width="40" height="40" viewBox="0 0 40 40" fill="none" xmlns="http://www.w3.org/2000/svg">
<path d="M35 20C35 28.2843 28.2843 35 20 35M35 20C35 11.7157 28.2843 5 20 5M35 20H5M20 35C11.7157 35 5 28.2843 5 20M20 35C20 35 26.6667 30 26.6667 20C26.6667 10 20 5 20 5M20 35C20 35 13.3333 30 13.3333 20C13.3333 10 20 5 20 5M5 20C5 11.7157 11.7157 5 20 5" stroke="url(#paint0_linear_17_125)" stroke-width="1.5"/>
<defs>
<linearGradient id="paint0_linear_17_125" x1="35" y1="20" x2="5" y2="20" gradientUnits="userSpaceOnUse">
<stop stop-color="#CB333B"/>
<stop offset="1" stop-color="#631D1B"/>
</linearGradient>
</defs>
</svg>
